<svg width="120" height="347" viewBox="0 0 120 347" fill="none" xmlns="http://www.w3.org/2000/svg">
<path d="M101.684 64.068C98.318 60.231 96.51 57.502 95.506 55.552C94.909 54.392 95.273 50.18 94.972 48.257C94.818 47.241 94.705 46.51 94.705 46.51C94.554 45.714 93.872 42.65 96.801 42.475C98.674 42.354 100.384 43.519 100.707 45.365L101.679 50.631C101.74 51 101.997 52.706 102.773 52.666C103.263 52.641 103.641 52.435 103.937 52.09C105.567 50.195 104.269 44.184 104.269 44.184L102.073 34.697C101.635 33.094 102.135 30.791 104.425 30.217L104.424 30.2C104.342 29.925 104.296 29.529 104.293 29.132C104.277 28.65 104.311 28.166 104.397 27.848C104.711 26.698 105.627 25.745 106.881 25.435C108.671 25.013 110.457 26.174 110.962 27.943L111.447 29.637L111.601 30.171C111.601 30.171 111.913 30.485 112.413 30.984C114.134 32.69 116.872 35.264 118.246 36.963C118.833 37.686 119.646 38.039 119.308 40.434L118.137 47.768C118.137 47.768 118.89 51.07 118.791 54.107C118.622 59.277 117.63 66.278 117.63 66.278C117.63 66.278 114.015 67.943 108.008 67.001C103.892 66.355 101.684 64.068 101.684 64.068Z" fill="#FF8E6E"/>
<path d="M104.499 30.1959L106.241 36.1219L106.244 36.1349C106.584 37.8749 106.858 39.6269 107.155 41.3749L107.156 41.3859L107.484 45.7919C107.487 45.8319 107.457 45.8659 107.417 45.8689C107.387 45.8709 107.361 45.8549 107.348 45.8309L107.334 45.8049C106.964 45.0969 106.718 44.3789 106.48 43.6599C106.251 42.9399 106.075 42.2159 105.911 41.4909L105.924 41.5939C105.792 41.1669 105.687 40.7359 105.567 40.3069C105.438 39.8799 105.368 39.4419 105.272 39.0089C105.068 38.1449 104.967 37.2629 104.833 36.3859L104.862 36.5129L104.572 34.9899C104.494 34.4769 104.432 33.9599 104.371 33.4419C104.287 32.3959 104.232 31.3409 104.353 30.2369L104.356 30.2089C104.36 30.1689 104.396 30.1409 104.436 30.1449C104.467 30.1479 104.491 30.1689 104.499 30.1959Z" fill="#CE6042"/>
<path d="M114.258 46.928C112.961 46.76 111.664 46.577 110.361 46.51C109.711 46.461 109.06 46.435 108.412 46.455C107.77 46.491 107.109 46.542 106.535 46.806C106.5 46.822 106.458 46.807 106.442 46.772C106.433 46.752 106.434 46.73 106.443 46.712L106.46 46.677C106.853 45.872 107.671 45.487 108.351 45.266C109.06 45.031 109.77 44.997 110.461 45.014C110.802 45.062 111.145 45.095 111.48 45.168C111.812 45.271 112.146 45.335 112.465 45.494C113.109 45.765 113.732 46.14 114.287 46.78L114.319 46.816C114.343 46.844 114.34 46.887 114.312 46.911C114.296 46.926 114.276 46.931 114.258 46.928Z" fill="#CE6042"/>
<path d="M102.776 52.591C103.581 52.114 104.494 52.047 105.38 52.245C106.276 52.43 107.136 52.992 107.745 53.781C108.31 54.591 108.644 55.574 108.544 56.485C108.55 56.941 108.377 57.368 108.257 57.778C108.056 58.176 107.84 58.553 107.526 58.885L107.499 58.914C107.472 58.942 107.428 58.943 107.4 58.917C107.384 58.902 107.377 58.882 107.378 58.862L107.445 57.757C107.412 57.392 107.446 57.02 107.363 56.663C107.273 55.936 106.967 55.257 106.545 54.68C106.127 54.095 105.538 53.637 104.879 53.326C104.218 53.024 103.497 52.818 102.771 52.742C102.732 52.738 102.704 52.703 102.708 52.665C102.71 52.642 102.724 52.623 102.742 52.612L102.776 52.591Z" fill="#CE6042"/>
<path d="M112.561 46.377C112.345 45.236 112.247 44.111 112.22 42.995C112.186 42.434 112.212 41.882 112.211 41.326C112.203 40.769 112.257 40.22 112.283 39.667L112.565 40.631C111.814 39.889 111.163 39.077 110.484 38.274C109.847 37.427 109.204 36.631 108.64 35.62C108.493 35.379 108.319 35.018 108.206 34.672C108.114 34.32 108.065 33.969 108.063 33.627C108.053 32.943 108.203 32.282 108.517 31.701C108.811 31.117 109.284 30.616 109.849 30.317C110.416 30.014 111.057 29.963 111.597 30.096L111.622 30.102C111.661 30.112 111.685 30.151 111.675 30.19C111.667 30.222 111.64 30.244 111.609 30.245C110.582 30.305 109.699 31.054 109.392 32.017C109.067 32.963 109.152 34.074 109.757 34.885C110.339 35.729 110.998 36.534 111.649 37.336L113.608 39.747C113.631 39.774 113.641 39.813 113.637 39.846L112.709 46.395C112.703 46.435 112.666 46.463 112.626 46.457C112.594 46.452 112.57 46.428 112.564 46.398L112.561 46.377Z" fill="#CE6042"/>
<path d="M118.171 87.0268C117.811 95.4068 117.601 105.517 113.061 112.877C108.851 119.697 100.001 121.997 92.871 118.467C88.651 116.377 85.031 112.817 81.711 109.537C79.061 106.917 76.601 104.347 74.261 101.687C69.581 96.3568 65.811 90.5668 61.531 84.8568C53.631 74.2768 50.351 56.8068 58.701 57.0968C71.271 57.5268 79.751 61.3268 84.611 65.7168L84.751 65.8468C88.681 69.4068 92.301 73.3268 95.751 77.3068C97.151 73.8668 98.621 70.4168 100.241 66.9968C102.091 68.2368 105.051 69.1568 108.101 69.5368C112.021 70.0268 116.061 69.7468 117.921 69.1768C118.421 75.1758 118.421 81.0768 118.171 87.0268Z" fill="#F26419"/>
<path d="M95.801 77.3278C94.744 79.8038 93.747 82.3068 92.812 84.8298C91.854 87.3448 90.948 89.8828 90.248 92.4818C90.241 92.5078 90.214 92.5238 90.187 92.5168C90.165 92.5108 90.15 92.4908 90.15 92.4688V92.4578C90.186 89.6688 90.95 87.0198 91.875 84.4788C92.371 83.2168 92.889 81.9648 93.54 80.7698L94.531 78.9858C94.921 78.4178 95.261 77.8288 95.707 77.2878L95.715 77.2778C95.732 77.2568 95.763 77.2538 95.784 77.2708C95.805 77.2848 95.809 77.3078 95.801 77.3278Z" fill="#B03B09"/>
<path d="M119.247 68.8797C119.247 67.6617 119.25 66.3337 118.909 65.9857C118.556 65.6247 117.724 65.5897 117.724 65.5897L117.659 66.0727C116.406 66.2877 113.688 66.9067 109.253 66.3547C104.125 65.7157 101.192 63.3207 101.039 63.3247C100.346 63.3437 99.691 64.4637 99.181 65.6617C98.565 67.1097 98.588 68.3177 98.792 68.6187C100.108 70.5627 104.034 72.0237 108.104 72.5347C113.12 73.1647 118.334 72.5227 118.92 71.6427C119.295 71.0817 119.247 70.0577 119.247 68.8797Z" fill="#B03B09"/>
<path d="M88.101 198.007L57.081 201.207L17.6309 194.637C17.0709 184.037 16.481 173.307 15.981 164.567C15.251 151.667 17.301 138.757 22.011 126.727L25.551 117.677C25.551 117.677 51.1209 122.327 85.0809 119.667L87.4709 144.397C87.4709 144.397 87.991 172.267 88.101 198.007Z" fill="#6B2231"/>
<path d="M57.011 201.206L56.984 172.949L57.045 144.692V144.586H57.151L71.913 144.617V144.767C69.453 145.005 66.992 145.126 64.532 145.294C62.072 145.477 59.611 145.512 57.151 145.628L58.086 144.694C58.317 149.404 58.346 154.113 58.398 158.823L58.471 165.887L58.371 172.951L58.271 180.015C58.22 182.37 58.093 184.724 58.008 187.079C57.846 191.788 57.561 196.497 57.16 201.206H57.011Z" fill="#601222"/>
<path d="M87.801 232.417C86.961 254.667 80.281 321.177 80.281 321.177L55.541 321.167C55.541 321.167 54.441 310.427 53.191 296.897C51.191 310.447 49.411 321.167 49.411 321.167L24.661 321.207C24.661 321.207 19.991 254.647 19.341 232.417C19.081 223.717 18.391 209.287 17.631 194.637L57.081 201.207L88.101 198.007C88.161 211.507 88.101 224.417 87.801 232.417Z" fill="#FF8E6E"/>
<path d="M52.4709 301.24C54.1659 289.819 55.7789 278.383 57.0759 266.911C57.3939 264.043 57.7009 261.173 57.9509 258.298C58.0779 256.861 58.1979 255.423 58.2929 253.984C58.4109 252.542 58.4549 251.114 58.4019 249.673C58.1839 243.913 57.5659 238.165 56.9289 232.431L56.9279 232.423V232.416L57.0099 201.206H57.16C57.333 203.807 57.4469 206.408 57.5589 209.009C57.6729 211.61 57.8079 214.211 57.8579 216.812L58.0669 224.615C58.1329 227.216 58.2259 229.817 58.2259 232.418L58.2179 232.277C58.9189 238.04 59.5999 243.76 59.8849 249.628C59.9699 251.084 59.8919 252.673 59.7599 254.086C59.6479 255.537 59.5129 256.982 59.3689 258.425C59.0859 261.312 58.7479 264.187 58.3989 267.06C57.7379 272.81 56.7839 278.517 55.8479 284.22L55.132 288.495L54.3249 292.756C53.7819 295.595 53.2409 298.434 52.6189 301.26L52.4709 301.24Z" fill="#CE6042"/>
<path d="M49.4569 321.144V342.563H13.8619C13.9309 342.286 14.0439 342.027 14.1989 341.785C15.9019 339.053 17.8289 336.478 19.2899 333.617C20.1799 331.88 22.8339 326.667 22.8339 326.667L24.6839 321.144H49.4569Z" fill="#F26419"/>
<path d="M49.4569 342.563V343.903C49.4569 345.286 48.3419 346.401 46.9679 346.401H16.7659C14.9589 346.401 13.8879 345.053 13.7669 343.626C13.7409 343.272 13.7669 342.909 13.8619 342.563H49.4569Z" fill="#FFEBDB"/>
<path d="M55.501 321.144V342.477H117.4C117.391 341.042 116.613 339.599 114.902 338.959L96.041 332.277L80.275 321.161L55.501 321.144Z" fill="#F26419"/>
<path d="M55.501 342.477V346.401H113.57C115.869 346.401 117.244 344.672 117.382 342.857C117.391 342.727 117.399 342.606 117.399 342.477H55.501Z" fill="#FFEBDB"/>
<path d="M85.0809 119.667L84.8809 117.627L82.3589 91.5161C82.3589 91.5161 86.7479 85.178 86.6579 82.736C86.4569 77.273 78.7429 69.1871 74.3579 64.6561C69.7799 59.9271 63.3739 56.9771 56.3109 56.9771H45.0709C40.4609 56.9771 27.6989 57.374 23.9689 59.554C14.7589 64.974 18.8209 76.847 21.0109 87.317L25.5209 117.477L25.5509 117.677C20.9769 119.757 19.5089 127.863 19.5089 127.863C19.5089 127.863 58.6919 138.778 88.1219 132.012C88.1219 132.012 89.2099 124.352 85.0809 119.667Z" fill="#F26419"/>
<path d="M17.5569 134.967C16.6209 131.868 19.5089 127.863 19.5089 127.863C19.8939 127.97 59.7909 138.525 88.1219 132.012C88.1219 132.012 90.1769 136.632 88.9539 138.548C86.9439 141.697 69.4719 142.693 50.9459 141.299C33.9419 140.02 18.0569 136.625 17.5569 134.967Z" fill="#B03B09"/>
<path d="M83.354 102.336L82.284 91.5231C82.282 91.5051 82.288 91.4871 82.297 91.4731C83.768 89.2541 85.206 86.9721 86.177 84.4961C86.389 83.8721 86.597 83.2311 86.541 82.5821C86.495 82.2561 86.477 81.9261 86.413 81.6021L86.169 80.6401C85.759 79.3771 85.157 78.1831 84.494 77.0291C83.117 74.7461 81.483 72.6201 79.746 70.5931C78.013 68.5601 76.178 66.6141 74.322 64.6901C74.303 64.6701 74.303 64.6391 74.323 64.6191C74.342 64.6011 74.374 64.6031 74.394 64.6201C76.429 66.3691 78.414 68.1851 80.241 70.1681C81.163 71.1511 82.061 72.1621 82.922 73.2131C83.77 74.2731 84.54 75.4031 85.276 76.5651C85.982 77.7501 86.635 78.9861 87.1 80.3481L87.386 81.4061C87.467 81.7661 87.492 82.1501 87.531 82.5231C87.585 83.3961 87.312 84.1651 87.076 84.8261C86.548 86.1561 85.888 87.3521 85.193 88.5251C84.488 89.6911 83.774 90.8321 82.942 91.9191L83.065 91.4471L83.35 96.8781C83.382 98.6941 83.473 100.505 83.453 102.326V102.331C83.453 102.358 83.43 102.381 83.403 102.38C83.377 102.38 83.356 102.361 83.354 102.336Z" fill="#B03B09"/>
<path d="M53.626 100.4C48.599 98.3793 40.874 95.5483 35.906 93.7303C34.915 93.3563 33.932 92.9933 32.957 92.6313C33.15 92.3793 33.339 92.1303 33.536 91.8763C34.257 90.9093 35.008 89.9333 35.782 88.9593C39.257 84.4773 43.427 79.8793 43.421 73.8683C43.417 69.7003 41.642 65.6583 38.573 62.8373C32.474 57.2293 22.985 57.6273 17.377 63.7263C16.741 64.4173 16.302 64.9383 15.785 65.5343L14.342 67.2943C13.401 68.4783 12.491 69.6873 11.59 70.9183C10.708 72.1633 9.83599 73.4313 8.97199 74.7343C8.12799 76.0513 7.29999 77.4113 6.47599 78.8283C5.64099 80.2433 4.86499 81.7493 4.07999 83.3823C1.60499 88.5303 -0.344011 94.3533 0.598989 100.129C2.30099 110.55 13.041 114.051 22.105 115.485C25.166 115.969 28.101 116.345 31.034 116.564C36.901 117.045 42.573 117.194 48.488 116.885L53.626 100.4Z" fill="#F26419"/>
<path d="M32.229 92.2022C31.57 90.9842 30.224 90.2332 28.86 90.0762C27.483 89.8742 26.086 90.1532 24.756 90.5362C23.42 90.9322 22.109 91.4162 20.8561 92.0242C19.6051 92.6272 18.387 93.3302 17.298 94.1782L17.215 94.0132C19.807 93.4582 22.417 92.9952 25.046 92.6582C26.36 92.4932 27.68 92.3602 29.006 92.3072C30.327 92.2622 31.671 92.2512 32.97 92.5842C32.996 92.5912 33.012 92.6182 33.006 92.6442C33 92.6682 32.9761 92.6842 32.9521 92.6812L32.943 92.6802C31.633 92.5262 30.327 92.6252 29.027 92.7952C27.728 92.9582 26.43 93.1362 25.14 93.3812C23.851 93.6302 22.5641 93.8902 21.2721 94.1242C19.9861 94.3772 18.692 94.6522 17.428 94.9542C16.962 95.0652 16.4951 94.7782 16.3831 94.3122C16.3051 93.9852 16.424 93.6562 16.663 93.4512L16.672 93.4442C17.864 92.4292 19.132 91.7972 20.456 91.1842C21.777 90.6012 23.1291 90.0822 24.5361 89.7792C25.9411 89.4702 27.454 89.2402 28.936 89.5492C30.392 89.8592 31.81 90.7852 32.319 92.1622C32.329 92.1882 32.315 92.2172 32.289 92.2262C32.268 92.2352 32.241 92.2242 32.229 92.2022Z" fill="#B03B09"/>
<path d="M53.6079 100.447L32.9219 92.7263C32.8699 92.7073 32.8439 92.6503 32.8629 92.5983L32.8779 92.5713L36.2319 88.2433C37.3629 86.8103 38.5079 85.3903 39.5619 83.9043C40.6159 82.4203 41.5589 80.8513 42.2649 79.1743C42.9559 77.4943 43.3569 75.6893 43.3709 73.8703C43.3709 73.8423 43.3939 73.8203 43.4209 73.8213C43.4469 73.8213 43.4679 73.8453 43.4709 73.8703C43.6529 75.7073 43.3319 77.5923 42.7529 79.3743C42.1089 81.1373 41.2019 82.7923 40.1979 84.3513C39.2109 85.9283 38.0399 87.3533 36.9479 88.8063L33.6709 93.1803L33.2699 91.7893L38.4139 93.7963C40.1229 94.4813 41.8529 95.1093 43.5399 95.8543L48.6239 98.0213C50.2969 98.8013 51.9899 99.5273 53.6429 100.354C53.6689 100.364 53.6819 100.393 53.6719 100.419C53.6629 100.442 53.6329 100.453 53.6079 100.447Z" fill="#B03B09"/>
<path d="M22.112 115.436C24.291 115.772 26.477 116.064 28.671 116.28C30.864 116.489 33.066 116.638 35.266 116.754C39.666 117.01 44.081 117.052 48.485 116.836C48.512 116.835 48.536 116.856 48.537 116.883C48.538 116.907 48.521 116.929 48.498 116.934L48.49 116.936C47.3979 117.184 46.296 117.31 45.193 117.479C44.088 117.589 42.981 117.673 41.871 117.751C39.652 117.878 37.431 117.805 35.211 117.751C32.995 117.554 30.795 117.41 28.591 117.051C27.494 116.86 26.401 116.657 25.315 116.425C24.237 116.139 23.155 115.896 22.095 115.535L22.087 115.532C22.061 115.523 22.047 115.495 22.056 115.469C22.065 115.446 22.089 115.432 22.112 115.436Z" fill="#B03B09"/>
<path d="M38.1219 116.924C38.1219 116.924 53.1079 116.541 53.2089 96.2432H80.626C80.626 96.2432 85.6529 106.296 87.0389 110.413C88.4029 114.463 92.0519 125.987 85.0389 127.466C74.9419 129.594 47.5619 127.763 45.6289 126.56C41.6099 124.057 38.1219 116.924 38.1219 116.924Z" fill="#B03B09"/>
<path d="M44.0609 56.9861C44.4309 56.9761 44.7709 56.9761 45.0709 56.9761H56.3109C59.1509 56.9761 61.8909 57.4561 64.4409 58.3461C64.4409 58.3461 65.8089 66.1151 64.4409 69.2061L44.0609 56.9861Z" fill="#FF8E6E"/>
<path d="M41.643 33.3101C41.643 33.3101 38.908 42.9501 28.955 42.9501C28.955 42.9501 35.065 47.0421 41.598 46.7111C39.841 48.4321 37.529 50.1961 34.506 51.6131C34.506 51.6131 49.067 53.8511 53.343 43.2881L41.643 33.3101Z" fill="#6B2231"/>
<path d="M70.8159 37.2583C70.8159 37.2583 71.6319 47.2453 81.3969 49.1733C81.3969 49.1733 74.6099 52.0043 68.2649 50.4143C69.6549 52.4423 71.5819 54.6213 74.2729 56.5963C74.2729 56.5963 59.5549 55.9723 57.4049 44.7803L70.8159 37.2583Z" fill="#6B2231"/>
<path d="M61.142 54.4792C61.142 54.4792 63.799 52.4122 65.883 53.1212C67.851 53.7902 68.198 56.4532 68.198 56.4532C68.198 56.4532 71.658 55.3842 72.775 56.6132C74.687 58.7172 71.881 63.2352 64.445 69.2032C64.445 69.2032 65.754 63.8102 61.142 54.4792Z" fill="#F26419"/>
<path d="M73.169 59.4511C73.041 60.5881 72.556 61.6731 71.948 62.6241C71.349 63.5931 70.617 64.4571 69.8439 65.2691C68.2669 66.8621 66.497 68.2411 64.468 69.2331L64.461 69.2361C64.443 69.2451 64.42 69.2371 64.411 69.2191C64.403 69.2031 64.408 69.1851 64.421 69.1741C66.125 67.7831 67.783 66.3311 69.306 64.7471C70.075 63.9631 70.811 63.1461 71.474 62.2711C72.134 61.3971 72.734 60.4631 73.097 59.4281C73.104 59.4091 73.125 59.3991 73.144 59.4051C73.161 59.4111 73.171 59.4271 73.169 59.4441V59.4511Z" fill="#B03B09"/>
<path d="M68.248 56.4475C68.675 57.3145 68.791 58.2534 68.816 59.1664C68.845 60.0864 68.714 60.9904 68.533 61.8774C68.108 63.6344 67.414 65.3304 66.152 66.7324L66.14 66.7454C66.122 66.7654 66.092 66.7664 66.072 66.7494C66.057 66.7354 66.052 66.7144 66.059 66.6964C66.674 65.0524 67.186 63.3694 67.559 61.6574C67.758 60.8044 67.927 59.9444 68.037 59.0754C68.14 58.2084 68.215 57.3265 68.15 56.4605C68.148 56.4335 68.168 56.4094 68.195 56.4074C68.216 56.4054 68.234 56.4175 68.243 56.4345L68.248 56.4475Z" fill="#B03B09"/>
<path d="M62.487 59.9L45.719 57.182L49.264 39.207L64.8 41.724L62.487 59.9Z" fill="#FF8E6E"/>
<mask id="mask0_170_7437" style="mask-type:luminance" maskUnits="userSpaceOnUse" x="45" y="39" width="20" height="21">
<path d="M62.487 59.9L45.719 57.182L49.264 39.207L64.8 41.724L62.487 59.9Z" fill="white"/>
</mask>
<g mask="url(#mask0_170_7437)">
<path d="M66.991 39.9262L64.871 56.5862C63.951 56.7162 63.001 56.7762 62.051 56.7762C55.401 56.7762 49.431 53.6962 45.511 48.8962L47.891 36.8262L66.991 39.9262Z" fill="#CE6042"/>
</g>
<path d="M34.3669 33.5379C37.1729 36.5329 41.5849 36.9579 44.2229 34.4879C46.8599 32.0169 46.7239 27.5869 43.9179 24.5909C41.1119 21.5959 36.6999 21.1709 34.0619 23.6409C31.4249 26.1119 31.5619 30.5429 34.3669 33.5379Z" fill="#FF8E6E"/>
<path d="M35.6879 25.9939C35.6879 25.9939 41.5469 25.4199 42.3159 31.5079L35.6879 25.9939Z" fill="#CE6042"/>
<path d="M83.9819 33.5379C81.1759 36.5329 76.7639 36.9579 74.1259 34.4879C71.4889 32.0169 71.6249 27.5869 74.4309 24.5909C77.2369 21.5959 81.6489 21.1709 84.2869 23.6409C86.9239 26.1119 86.7879 30.5429 83.9819 33.5379Z" fill="#FF8E6E"/>
<path d="M82.6608 25.9939C82.6608 25.9939 76.8018 25.4199 76.0328 31.5079L82.6608 25.9939Z" fill="#CE6042"/>
<path d="M59.1749 51.8113C49.6119 51.8113 41.7889 43.9873 41.7889 34.4253V19.6253C41.7889 10.0623 49.6129 2.23926 59.1749 2.23926C68.7379 2.23926 76.5609 10.0633 76.5609 19.6253V34.4253C76.5609 43.9873 68.7369 51.8113 59.1749 51.8113Z" fill="#FF8E6E"/>
<path d="M52.1799 28.2959C51.5959 28.2959 51.1179 27.8179 51.1179 27.2339V23.4189C51.1179 22.8349 51.5959 22.3569 52.1799 22.3569C52.7639 22.3569 53.2419 22.8349 53.2419 23.4189V27.2339C53.2419 27.8179 52.7639 28.2959 52.1799 28.2959Z" fill="#601222"/>
<path d="M66.1699 28.2959C65.5859 28.2959 65.1079 27.8179 65.1079 27.2339V23.4189C65.1079 22.8349 65.5859 22.3569 66.1699 22.3569C66.7539 22.3569 67.2319 22.8349 67.2319 23.4189V27.2339C67.2319 27.8179 66.7539 28.2959 66.1699 28.2959Z" fill="#601222"/>
<path d="M61.1399 25.98C61.1399 25.98 60.5229 29.755 62.8049 31.509L60.7849 33.53" stroke="#CE6042" stroke-miterlimit="10" stroke-linecap="round" stroke-linejoin="round"/>
<path d="M65.3529 36.8672C65.3529 40.2792 62.5869 43.0452 59.1749 43.0452C55.7629 43.0452 52.9969 40.2792 52.9969 36.8672H65.3529Z" fill="#FFEBDB"/>
<path d="M41.788 22.9521C41.788 22.9521 67.434 19.1601 65.177 11.0541C65.177 11.0541 68.244 16.5431 64.625 18.9691C64.625 18.9691 71.136 19.3521 69.604 11.6921C69.604 11.6921 75.784 14.8071 76.561 22.9521C76.561 22.9521 78.807 16.1601 76.561 10.3521C75.173 6.76214 71.334 7.22914 71.334 7.22914C71.334 7.22914 69.87 -1.00886 58.317 0.778141C51.355 1.85514 38.089 8.10614 41.788 22.9521Z" fill="#6B2231"/>
<path d="M35.5349 57.3392C35.5349 57.3392 36.4719 53.9002 38.2599 52.6162C39.9479 51.4032 42.3169 52.6672 42.3169 52.6672C42.3169 52.6672 42.0919 49.0492 45.1049 49.0342C48.7109 49.0172 62.2109 58.5452 64.4449 69.2042C64.4449 69.2042 48.6879 59.7042 35.5349 57.3392Z" fill="#F26419"/>
<path d="M42.771 52.9241C44.514 53.3771 46.206 53.9951 47.857 54.7071C49.506 55.4251 51.1029 56.2631 52.6309 57.2141C54.1619 58.1631 55.5719 59.2971 56.8939 60.5141C58.2239 61.7321 59.348 63.1501 60.37 64.6291C60.385 64.6511 60.38 64.6821 60.358 64.6971C60.339 64.7101 60.3149 64.7081 60.2979 64.6941L60.286 64.6841C59.582 64.0791 59.059 63.3681 58.343 62.8191C57.71 62.2031 57.028 61.6481 56.355 61.0901C54.976 60.0161 53.594 58.9601 52.096 58.0581C50.629 57.1111 49.0929 56.2701 47.5439 55.4171C46.7679 54.9931 45.9759 54.5931 45.1699 54.2151C44.3839 53.7791 43.562 53.4331 42.747 53.0211L42.7359 53.0151C42.7119 53.0031 42.7019 52.9731 42.7139 52.9491C42.7249 52.9281 42.749 52.9181 42.771 52.9241Z" fill="#B03B09"/>
<path d="M64.4259 69.2353L57.3139 65.9263C54.9429 64.8433 52.5879 63.7333 50.1819 62.7453C47.8089 61.6793 45.3829 60.7533 42.9549 59.8223C41.7319 59.3883 40.5159 58.9183 39.2689 58.5493C38.0439 58.0883 36.7789 57.7893 35.5269 57.3753L35.5219 57.3733C35.5019 57.3673 35.4919 57.3453 35.4979 57.3263C35.5039 57.3083 35.5219 57.2983 35.5399 57.3013C38.1139 57.7843 40.6439 58.4693 43.1369 59.2693C45.6189 60.1013 48.0649 61.0383 50.4759 62.0563C55.2729 64.1523 59.9519 66.5153 64.4629 69.1703C64.4809 69.1803 64.4869 69.2033 64.4759 69.2213C64.4679 69.2393 64.4429 69.2433 64.4259 69.2353Z" fill="#B03B09"/>
</svg>
