<svg width="150" height="386" viewBox="0 0 150 386" fill="none" xmlns="http://www.w3.org/2000/svg">
<path d="M77.4839 96.8041L60.5909 95.8221L62.0309 79.0601L77.7439 79.9721L77.4839 96.8041Z" fill="#FF8E6E"/>
<mask id="mask0_170_7524" style="mask-type:luminance" maskUnits="userSpaceOnUse" x="60" y="79" width="18" height="18">
<path d="M77.4839 96.8041L60.5909 95.8221L62.0309 79.0601L77.7439 79.9721L77.4839 96.8041Z" fill="white"/>
</mask>
<g mask="url(#mask0_170_7524)">
<path d="M78.0029 79.3369L77.7039 91.8389C74.9499 92.6019 71.9789 92.7359 69.0079 92.0659C65.8819 91.3749 63.1389 89.8899 60.9209 87.8679L61.7979 78.3989L78.0029 79.3369Z" fill="#CE6042"/>
</g>
<path d="M47.656 67.3001C49.963 70.6951 54.256 71.8001 57.245 69.7691C60.234 67.7381 60.787 63.3391 58.481 59.9451C56.174 56.5511 51.881 55.4451 48.892 57.4761C45.903 59.5081 45.35 63.9061 47.656 67.3001Z" fill="#FF8E6E"/>
<path d="M50.1329 60.0532C50.1329 60.0532 56.0099 60.3952 55.8239 66.5302L50.1329 60.0532Z" fill="#CE6042"/>
<path d="M96.669 75.0048C93.432 77.5278 89.007 77.2628 86.785 74.4128C84.563 71.5628 85.386 67.2068 88.623 64.6838C91.86 62.1608 96.285 62.4258 98.507 65.2758C100.729 68.1258 99.906 72.4818 96.669 75.0048Z" fill="#FF8E6E"/>
<path d="M96.536 67.3467C96.536 67.3467 90.837 65.8697 89.132 71.7647L96.536 67.3467Z" fill="#CE6042"/>
<path d="M69.325 89.203C59.878 87.718 53.3639 78.774 54.8489 69.328L57.147 54.707C58.632 45.26 67.5759 38.746 77.0219 40.231C86.4689 41.716 92.9829 50.66 91.4979 60.107L89.2 74.728C87.716 84.174 78.772 90.688 69.325 89.203Z" fill="#FF8E6E"/>
<path d="M66.067 64.8883C65.49 64.7973 65.092 64.2513 65.183 63.6743L65.775 59.9053C65.866 59.3283 66.412 58.9303 66.989 59.0213C67.566 59.1123 67.964 59.6583 67.873 60.2353L67.281 64.0043C67.19 64.5813 66.644 64.9783 66.067 64.8883Z" fill="#601222"/>
<path d="M79.887 67.0601C79.31 66.9691 78.912 66.4231 79.003 65.8461L79.595 62.0771C79.686 61.5001 80.232 61.1021 80.809 61.1931C81.386 61.2841 81.784 61.8301 81.693 62.4071L81.101 66.1761C81.01 66.7531 80.464 67.1511 79.887 67.0601Z" fill="#601222"/>
<path d="M75.278 63.9912C75.278 63.9912 74.082 67.6252 76.064 69.7112L73.755 71.3942" stroke="#CE6042" stroke-miterlimit="10" stroke-linecap="round" stroke-linejoin="round"/>
<path d="M77.7489 75.4009C77.2189 78.7709 74.0569 81.0739 70.6869 80.5449C67.3159 80.0149 65.0139 76.8529 65.5429 73.4829L77.7489 75.4009Z" fill="#FFEBDB"/>
<path d="M94.618 41.7081C93.462 40.3751 89.0909 41.8941 86.6839 42.4091C87.7029 40.6001 88.4099 37.5141 86.3009 36.6641C81.7059 34.8131 64.0479 40.0201 61.0079 42.2491C56.9139 45.2511 56.1379 61.1291 56.1379 61.1291C56.1379 61.1291 61.2019 58.2861 61.4009 56.9121C61.5999 55.5381 60.6819 53.0011 60.7859 51.6911C61.0519 48.3191 65.1449 43.7491 70.4779 45.3861C72.3309 45.9551 75.9689 48.6861 75.9689 48.6861C75.9689 48.6861 80.3149 47.3411 82.2509 47.4301C87.8239 47.6871 90.1369 53.3691 89.2509 56.6341C88.9059 57.9021 87.1869 59.9821 86.9119 61.3421C86.6359 62.7021 90.4089 67.0461 90.4089 67.0461C90.4089 67.0461 90.8789 65.8711 91.3659 64.0071C93.2249 57.8841 96.956 44.4021 94.618 41.7081Z" fill="#174566"/>
<path d="M49.8989 360.145V381.564H14.304C14.373 381.287 14.486 381.028 14.641 380.786C16.344 378.054 18.2709 375.479 19.7319 372.618C20.6219 370.881 23.276 365.668 23.276 365.668L25.126 360.145H49.8989Z" fill="#174566"/>
<path d="M49.8989 381.563V382.904C49.8989 384.287 48.784 385.401 47.41 385.401H17.208C15.402 385.401 14.33 384.053 14.209 382.626C14.183 382.272 14.209 381.909 14.304 381.563H49.8989Z" fill="#FFEBDB"/>
<path d="M25.125 360.144V336.217L52.727 337.622L49.899 360.144H25.125Z" fill="#FF8E6E"/>
<path d="M87.2429 360.145V381.478H149.141C149.132 380.043 148.354 378.6 146.643 377.96L127.782 371.278L112.016 360.162L87.2429 360.145Z" fill="#174566"/>
<path d="M87.2429 381.478V385.402H145.312C147.611 385.402 148.986 383.673 149.124 381.858C149.133 381.728 149.141 381.607 149.141 381.478H87.2429Z" fill="#FFEBDB"/>
<path d="M87.2399 360.144L83.1429 336.217L110.984 337.622L112.016 360.161L87.2399 360.144Z" fill="#FF8E6E"/>
<path d="M114.772 344.641L80.2219 348.071L64.202 185.881L55.022 348.601L20.3719 346.631L29.642 181.591L30.272 170.681C39.902 173.081 66.8919 178.951 98.4719 178.391L98.422 179.191L114.772 344.641Z" fill="#8DB5EB"/>
<path d="M120.024 208.355C120.257 209.333 120.414 210.037 120.414 210.037C120.573 210.813 121.075 213.847 123.8 212.935C125.541 212.358 126.676 210.685 126.289 208.886L125.243 203.741C125.163 203.382 124.815 201.821 125.496 201.496C126.567 200.967 128.052 206.522 128.584 208.519C129.181 210.676 131.362 218.958 131.362 218.958C131.702 220.549 133.16 222.34 135.408 221.825L135.411 221.839C135.473 222.115 136.55 225.46 139.675 224.904C141.445 224.589 142.468 222.672 142.132 220.906C142.132 220.906 140.693 207.497 140.39 206.205C139.219 201.217 133.79 188.516 133.79 188.516L118.567 195.707C117.672 197.445 118.038 199.39 117.846 201.521C117.726 202.794 119.594 206.494 120.024 208.355Z" fill="#FF8E6E"/>
<path d="M133.09 201.879L136.329 211.106L136.333 211.122L137.341 216.88L137.589 218.323C137.661 218.822 137.589 219.327 137.429 219.796C137.109 220.743 136.347 221.505 135.438 221.886C135.411 221.897 135.38 221.885 135.369 221.858C135.359 221.835 135.367 221.809 135.387 221.795L135.395 221.789C136.195 221.211 136.744 220.442 136.869 219.605C136.952 219.203 136.942 218.77 136.843 218.439L136.478 217.039C136.253 216.088 136.023 215.138 135.836 214.18C135.652 213.221 135.45 212.266 135.307 211.3L135.345 211.447C134.83 209.901 134.356 208.34 133.959 206.753C133.747 205.964 133.572 205.162 133.406 204.357C133.265 203.543 133.081 202.745 132.989 201.914L132.988 201.902C132.985 201.873 133.006 201.847 133.034 201.844C133.06 201.841 133.083 201.856 133.09 201.879Z" fill="#CE6042"/>
<path d="M1.85901 11.091C3.27801 10.418 4.97701 11.015 5.65101 12.425L10.101 21.731C10.246 21.614 10.396 21.517 10.539 21.408L6.00702 6.52904C5.55102 5.02904 6.39902 3.43704 7.89902 2.98104C9.40802 2.52804 10.991 3.37304 11.447 4.87304L15.872 19.385C15.918 19.379 15.956 19.37 16.003 19.363L16.368 19.336L15.196 3.65204C15.078 2.09104 16.256 0.72404 17.816 0.60604C19.385 0.49004 20.744 1.66604 20.862 3.22604L22.066 19.258C22.245 19.293 22.419 19.318 22.598 19.353L23.557 9.02904C23.7 7.46104 25.084 6.31404 26.643 6.45504C28.219 6.60004 29.356 7.99004 29.215 9.55004L28.013 22.502C28.091 22.584 28.166 22.683 28.244 22.765C29.942 19.68 31.727 17.593 31.851 17.453C32.878 16.263 34.672 16.14 35.862 17.166C37.041 18.199 37.175 19.987 36.14 21.175C35.002 22.49 32.094 27.604 30.8 32.066C29.401 36.889 25.808 40.16 21.012 40.541L17.688 40.799C11.787 41.266 6.59201 36.82 6.12201 30.928C6.02601 29.678 6.16201 28.466 6.47201 27.315L0.524016 14.882C-0.155984 13.462 0.449007 11.765 1.85901 11.091Z" fill="#FF8E6E"/>
<path d="M18.06 33.2209C17.71 32.1379 17.605 30.9309 17.897 29.7519C18.022 29.1579 18.267 28.5909 18.544 28.0329C18.887 27.5239 19.203 26.9669 19.667 26.5489C19.879 26.3179 20.11 26.1129 20.355 25.9259C20.597 25.7349 20.828 25.5239 21.099 25.3819C21.622 25.0619 22.17 24.8039 22.725 24.5809C23.872 24.1869 24.993 23.9879 26.245 24.0579L25.589 24.4119C25.971 24.0829 26.345 23.7479 26.759 23.4429C27.157 23.1269 27.593 22.8379 28.05 22.5669L28.074 22.5529C28.108 22.5319 28.153 22.5439 28.173 22.5779C28.188 22.6039 28.186 22.6359 28.169 22.6579L26.393 25.0259C26.376 25.0489 26.351 25.0619 26.325 25.0659L26.318 25.0669C24.237 25.3249 22.2 26.1849 20.659 27.5949C20.259 27.9359 19.948 28.3589 19.619 28.7669C19.357 29.2189 19.053 29.6519 18.882 30.1519C18.443 31.1129 18.307 32.1749 18.211 33.2249C18.207 33.2649 18.171 33.2949 18.131 33.2909C18.101 33.2879 18.077 33.2679 18.068 33.2409L18.06 33.2209Z" fill="#CE6042"/>
<path d="M101.653 123.641L98.5029 177.781L98.4729 178.391C66.8929 178.951 39.9029 173.081 30.2729 170.681L30.313 170.111L33.233 119.671C34.053 105.671 46.053 94.9812 60.053 95.7912L77.773 96.8212C91.772 97.6312 102.462 109.641 101.653 123.641Z" fill="#FFEBDB"/>
<mask id="mask1_170_7524" style="mask-type:luminance" maskUnits="userSpaceOnUse" x="30" y="95" width="72" height="84">
<path d="M101.653 123.641L98.5029 177.781L98.4729 178.391C66.8929 178.951 39.9029 173.081 30.2729 170.681L30.313 170.111L33.233 119.671C34.053 105.671 46.053 94.9812 60.053 95.7912L77.773 96.8212C91.772 97.6312 102.462 109.641 101.653 123.641Z" fill="white"/>
</mask>
<g mask="url(#mask1_170_7524)">
<path d="M83.122 95.3114C82.262 103.061 75.762 108.481 67.862 107.671C59.392 106.791 52.532 99.0614 52.542 90.4014L83.122 95.3114Z" fill="#FF8E6E"/>
</g>
<path d="M32.162 119.793V119.792C32 119.683 32.08 119.737 32.162 119.793Z" fill="#174566"/>
<path d="M49.092 91.9514H48.692C46.332 90.1314 42.912 87.4914 42.912 87.4914C40.372 85.5614 37.872 83.5514 36.142 82.0614L34.342 80.4614C34.272 80.2714 34.202 80.0914 34.132 79.8714C33.352 77.5314 32.672 74.2714 32.092 70.9914C31.482 67.6914 30.962 64.2114 30.412 60.6914C29.342 53.6714 28.322 45.4414 26.872 38.2314L10.802 38.9614C8.59198 45.9614 7.12198 53.4014 6.06198 60.6214C5.50198 64.4914 5.10198 68.4014 4.89198 72.4714C4.72198 76.5714 4.67198 80.6914 5.30198 85.6014C5.47198 86.8314 5.71199 88.1614 6.04199 89.5914C9.44199 103.061 21.102 112.441 32.162 119.791C32.335 119.908 32.247 119.849 32.162 119.792L29.976 143.446C29.976 143.446 27.195 150.09 25.982 152.707C23.89 157.221 28.347 160.295 28.347 160.295L28.29 162.189L54.733 165.771C57.653 142.281 60.591 95.8224 60.591 95.8224C57.151 92.5324 52.163 91.9514 49.092 91.9514Z" fill="#33658A"/>
<path d="M54.131 170.202C53.301 170.835 45.8979 169.9 39.6419 168.856C33.8519 167.89 27.7379 166.909 26.8759 165.771C26.3089 165.023 26.8359 160.909 27.6419 160.386C28.3359 159.935 33.4039 161.187 41.2879 162.194C51.1289 163.45 55.2159 163.431 55.4079 164.388C55.6729 165.717 55.115 169.451 54.131 170.202Z" fill="#174566"/>
<path d="M61.045 90.5331C61.045 90.5331 54.865 90.4091 52.87 92.5441C50.909 94.6431 52.02 101.29 52.87 104.033C55.184 111.504 59.149 115.807 59.149 115.807L60.59 95.8221L61.045 90.5331Z" fill="#174566"/>
<path d="M8.43294 44.1042C7.85894 43.6132 7.61994 39.1392 8.63594 38.0362C9.19294 37.4312 10.8609 38.2072 18.9659 37.9752C24.3859 37.8202 28.2739 36.9812 28.6229 37.1982C29.5089 37.7482 29.3549 41.8422 28.5129 43.0832C27.5289 44.5312 10.2939 45.6942 8.43294 44.1042Z" fill="#174566"/>
<path d="M133.792 188.511L118.572 195.711C115.562 189.541 111.742 182.281 109.192 176.001C107.882 172.871 106.692 169.711 105.442 166.581C103.682 161.961 102.418 158.397 100.368 153.967L100.294 156.95C100.294 156.95 102.573 162.707 102.801 164.851C103.136 168.011 100.016 168.255 100.016 168.255L99.9719 170.037C89.6179 169.503 76.0889 167.58 76.0889 167.58L77.4839 96.8052C77.6439 96.8152 78.1119 96.8542 79.1129 96.9322C92.6529 98.2022 109.713 105.152 113.813 113.772C116.753 119.972 117.783 121.972 120.453 128.312C121.823 131.472 123.053 134.682 124.363 138.012C127.043 144.862 128.623 152.262 129.953 159.552C130.572 162.921 133.172 181.651 133.792 188.511Z" fill="#33658A"/>
<path d="M77.5619 91.7583C77.5619 91.7583 83.9259 94.1013 85.0459 95.7473C86.6079 98.0423 85.2729 103.212 84.1789 105.868C81.2009 113.1 77.1089 115.806 77.1089 115.806L77.4829 96.8033L77.5619 91.7583Z" fill="#174566"/>
<path d="M117.504 195.929C116.052 195.553 114.388 191.91 114.928 190.511C115.224 189.744 119.827 188.407 124.248 186.44C128.843 184.396 133.187 181.529 133.567 181.685C134.955 182.254 135.331 186.222 135.003 187.685C134.62 189.393 118.822 196.271 117.504 195.929Z" fill="#174566"/>
<path d="M100.293 153.962L100.972 139.445L101.8 124.936C101.802 124.895 101.838 124.864 101.878 124.866C101.914 124.868 101.942 124.895 101.947 124.929L101.949 124.944C102.318 127.388 102.525 129.825 102.566 132.252C102.622 133.468 102.582 134.678 102.59 135.891L102.469 139.523C102.318 141.94 102.138 144.356 101.809 146.765C101.516 149.175 101.06 151.577 100.442 153.97L100.438 153.984C100.428 154.024 100.387 154.048 100.348 154.037C100.314 154.029 100.292 153.997 100.293 153.962Z" fill="#174566"/>
<path d="M103.557 154.342C103.817 153.632 104.137 152.952 104.473 152.278C104.807 151.603 105.153 150.928 105.567 150.294C105.972 149.653 106.394 149.02 106.864 148.407C107.332 147.793 107.835 147.188 108.476 146.674C108.796 146.415 109.132 146.162 109.536 145.955C109.939 145.732 110.44 145.61 110.851 145.544C111.712 145.416 112.533 145.47 113.325 145.579C114.916 145.82 116.342 146.374 117.78 147.024C118.191 147.209 118.374 147.693 118.189 148.104C118.073 148.362 117.834 148.531 117.575 148.575C116.589 148.734 115.567 148.98 114.57 149.221C113.562 149.448 112.562 149.713 111.577 150.028C110.596 150.352 109.634 150.725 108.672 151.116C107.723 151.533 106.812 152.029 105.921 152.599L105.914 152.603C105.891 152.618 105.86 152.611 105.845 152.588C105.831 152.567 105.836 152.539 105.855 152.523C107.47 151.147 109.384 150.191 111.344 149.422C113.315 148.669 115.347 148.085 117.421 147.681L117.399 147.845C116.046 147.255 114.621 146.798 113.168 146.547C112.442 146.428 111.7 146.367 110.974 146.46C110.239 146.525 109.591 146.896 109.015 147.354C107.864 148.278 106.929 149.453 106.05 150.644C105.18 151.846 104.377 153.1 103.644 154.391C103.631 154.415 103.6 154.423 103.576 154.41C103.554 154.398 103.546 154.372 103.554 154.35L103.557 154.342Z" fill="#174566"/>
<path d="M100.671 174.64C100.174 175.086 93.1829 174.864 86.7399 174.282C80.6919 173.735 75.0349 172.893 74.7969 171.881C74.4529 170.423 74.887 166.344 75.51 165.954C76.211 165.515 80.398 166.287 88.837 167.101C98.712 168.054 100.961 168.025 101.27 168.952C101.556 169.813 101.465 173.928 100.671 174.64Z" fill="#174566"/>
</svg>
