<svg width="155" height="349" viewBox="0 0 155 349" fill="none" xmlns="http://www.w3.org/2000/svg">
<path d="M124.818 80.5439H78.918C78.918 80.5439 64.461 63.0539 66.78 28.4839H101.66C101.671 32.1939 102.063 39.6239 104.623 45.4439C106.126 48.8239 108.599 51.1739 111.683 52.8939C127.858 61.9049 124.818 80.5439 124.818 80.5439Z" fill="#6B2231"/>
<path d="M154.65 104.715C154.49 103.435 154.13 102.155 153.55 100.915C151.19 95.8248 145.64 92.7849 140.08 93.5049C134.82 94.1949 130.71 97.9349 129.3 102.715C128.28 104.265 126.94 106.285 126.35 107.135L120.55 115.165C118.92 117.445 117.28 119.775 115.7 122.175C115.35 122.695 115.01 123.215 114.67 123.745C114.22 124.435 113.77 125.135 113.32 125.845C117.24 129.645 124.58 134.005 136.93 132.355C137.33 132.025 137.72 131.685 138.12 131.345C139.46 130.195 140.9 128.945 142.35 127.595C148.93 121.525 155.799 113.624 154.65 104.715Z" fill="#FF8E6E"/>
<path d="M136.93 132.355C134.52 134.395 132.04 136.325 129.45 138.115C126.45 140.235 123.37 142.185 119.96 143.915C116.01 145.925 111.17 144.345 109.16 140.385C107.97 138.035 108.04 135.375 109.13 133.175L109.25 132.955C110.48 130.495 111.88 128.135 113.32 125.845C117.24 129.645 124.579 134.005 136.93 132.355Z" fill="#CE6042"/>
<path d="M78.3949 59.583C71.3419 60.084 61.6829 64.966 56.0599 70.779C56.0599 70.779 48.9359 78.951 44.9979 84.126C44.8469 83.896 44.6989 83.668 44.5479 83.437C40.7079 77.688 36.7159 71.893 32.1379 66.394L32.0559 66.295C30.4129 64.351 27.8499 63.251 25.1359 63.593C20.8709 64.129 17.8489 68.022 18.3859 72.286C19.2979 79.536 20.9009 86.444 22.8039 93.332C23.7889 96.761 24.8219 100.185 26.0469 103.616C27.6219 108.029 29.1629 112.77 32.0399 116.532C33.5759 118.541 35.5629 120.201 37.8749 121.244C41.8549 123.041 46.4859 122.896 50.4699 121.186C53.0429 120.082 55.2769 118.322 57.3609 116.481C59.2229 114.835 60.5779 113.418 61.9619 112.006C64.6309 109.175 67.0159 106.428 69.2709 103.591C71.5269 100.767 73.6609 97.906 75.6619 94.961C77.6639 91.998 79.5439 89.05 81.2469 85.795C84.1709 80.191 85.0189 59.112 78.3949 59.583Z" fill="#FF8E6E"/>
<path d="M1.00596 47.562C2.19796 46.54 3.99397 46.669 5.01497 47.853L11.754 55.662C11.863 55.511 11.982 55.378 12.091 55.236L3.80797 42.071C2.97397 40.743 3.37394 38.984 4.70094 38.151C6.03694 37.317 7.78695 37.717 8.62095 39.044L16.7049 51.883C16.7479 51.865 16.782 51.846 16.825 51.828L17.17 51.706L11.9159 36.881C11.3919 35.406 12.169 33.777 13.643 33.253C15.126 32.728 16.7469 33.505 17.2709 34.98L22.6459 50.132C22.8279 50.119 23.0019 50.097 23.1839 50.084L21.3959 39.871C21.1219 38.32 22.1549 36.85 23.6969 36.577C25.2559 36.303 26.718 37.345 26.992 38.887L29.237 51.699C29.334 51.758 29.4319 51.833 29.5289 51.892C30.3559 48.469 31.53 45.986 31.612 45.819C32.29 44.401 33.989 43.81 35.407 44.488C36.817 45.175 37.416 46.865 36.729 48.283C35.977 49.851 34.5149 55.549 34.4389 60.194C34.3569 65.215 31.7499 69.316 27.2229 70.943L24.084 72.066C18.514 74.068 12.3319 71.143 10.3299 65.582C9.90894 64.401 9.72194 63.196 9.71794 62.004L0.711958 51.572C-0.315042 50.379 -0.178036 48.583 1.00596 47.562Z" fill="#FF8E6E"/>
<path d="M22.4659 64.6529C21.9389 63.6819 21.5349 62.5609 21.5439 61.3709C21.5189 60.7769 21.6219 60.1829 21.7449 59.5879C21.9439 59.0219 22.1069 58.4219 22.4379 57.9109C22.5789 57.6399 22.7459 57.3879 22.9299 57.1499C23.1099 56.9079 23.2749 56.6519 23.4929 56.4469C23.9029 56.0089 24.3529 55.6219 24.8189 55.2659C25.7939 54.5889 26.8059 54.0919 27.9929 53.8089L27.5439 54.2369C27.8099 53.8129 28.0659 53.3839 28.3749 52.9769C28.6739 52.5659 28.9529 52.1469 29.3029 51.7569L29.3169 51.7409C29.3389 51.7159 29.3779 51.7139 29.4019 51.7359C29.4209 51.7539 29.4269 51.7809 29.4179 51.8039L28.3229 54.5539C28.3139 54.5759 28.2969 54.5919 28.2769 54.6009L28.2719 54.6029C26.3279 55.3989 24.5789 56.7589 23.4619 58.5349C23.1659 58.9709 22.9759 59.4629 22.7669 59.9439C22.6329 60.4509 22.4539 60.9499 22.4219 61.4789C22.2529 62.5239 22.4019 63.5859 22.5869 64.6249C22.5929 64.6589 22.5709 64.6909 22.5369 64.6969C22.5099 64.7019 22.4839 64.6879 22.4719 64.6659L22.4659 64.6529Z" fill="#CE6042"/>
<path d="M79.8299 62.3047L96.5179 59.1187L92.3839 41.1997L76.9369 44.2127L79.8299 62.3047Z" fill="#FF8E6E"/>
<mask id="mask0_170_7598" style="mask-type:luminance" maskUnits="userSpaceOnUse" x="76" y="41" width="21" height="22">
<path d="M79.8299 62.3047L96.5179 59.1187L92.3839 41.1997L76.9369 44.2127L79.8299 62.3047Z" fill="white"/>
</mask>
<g mask="url(#mask0_170_7598)">
<path d="M75.2119 42.8547L77.3319 56.1347C78.4819 56.3747 79.6819 56.5047 80.9019 56.5047C87.0519 56.5047 92.4819 53.2647 95.5819 48.4147L93.4719 39.2847L75.2119 42.8547Z" fill="#CE6042"/>
</g>
<path d="M108.972 33.7278C106.166 36.7228 101.754 37.1478 99.1159 34.6778C96.4789 32.2068 96.6148 27.7758 99.4208 24.7808C102.227 21.7858 106.639 21.3608 109.277 23.8308C111.914 26.3018 111.778 30.7328 108.972 33.7278Z" fill="#FF8E6E"/>
<path d="M107.651 26.1839C107.651 26.1839 101.792 25.6099 101.023 31.6979L107.651 26.1839Z" fill="#CE6042"/>
<path d="M59.3569 33.7278C62.1629 36.7228 66.5749 37.1478 69.2129 34.6778C71.8499 32.2068 71.7139 27.7758 68.9079 24.7808C66.1019 21.7858 61.6899 21.3608 59.0519 23.8308C56.4149 26.3018 56.5509 30.7328 59.3569 33.7278Z" fill="#FF8E6E"/>
<path d="M60.6779 26.1839C60.6779 26.1839 66.5368 25.6099 67.3058 31.6979L60.6779 26.1839Z" fill="#CE6042"/>
<path d="M84.1638 51.9997C93.7268 51.9997 101.55 44.1757 101.55 34.6137V19.8137C101.55 10.2507 93.7258 2.42773 84.1638 2.42773C74.6008 2.42773 66.7769 10.2517 66.7769 19.8137V34.6137C66.7779 44.1757 74.6018 51.9997 84.1638 51.9997Z" fill="#FF8E6E"/>
<path d="M84.1638 2.0459C63.9548 2.0459 66.7768 23.1399 66.7768 23.1399C66.7768 23.1399 67.9418 15.0429 70.5178 12.3069H70.5498C70.0468 13.9809 69.6488 16.3669 69.6488 19.7539H73.0788L73.8988 15.2739V19.7539H75.9588L76.9788 15.2739V19.7539H91.2088V15.2739L92.3188 19.7539H96.9588C97.1388 16.6589 96.7128 14.1409 96.1788 12.2899H96.1978C96.1978 12.2899 99.4418 21.4819 101.55 23.1369C101.55 23.1369 104.374 2.0459 84.1638 2.0459Z" fill="#6B2231"/>
<path d="M101.477 23.1268C101.739 20.5238 101.594 17.8688 101.072 15.3038C100.54 12.7468 99.5799 10.2418 98.0009 8.1538C97.2179 7.1098 96.2929 6.1768 95.2579 5.3848C94.2159 4.5978 93.0519 3.9908 91.8469 3.4958C89.4059 2.5628 86.7769 2.1908 84.1639 2.1948C81.5499 2.1898 78.9209 2.5628 76.4809 3.4968C75.2759 3.9928 74.1129 4.5998 73.0699 5.3868C72.0349 6.1798 71.1099 7.1128 70.3269 8.1568C68.7479 10.2448 67.7889 12.7498 67.2569 15.3068C66.7349 17.8718 66.5909 20.5258 66.8529 23.1288C66.8569 23.1698 66.8269 23.2068 66.7859 23.2108C66.7479 23.2148 66.7119 23.1858 66.7039 23.1488C66.4199 21.8458 66.2919 20.5168 66.2679 19.1788C66.2359 17.8408 66.3059 16.4938 66.4829 15.1478C66.9019 12.4778 67.7899 9.7958 69.3929 7.4618C70.1849 6.2948 71.1559 5.22781 72.2779 4.34081C73.4009 3.45181 74.6589 2.7548 75.9599 2.1858C78.6009 1.1228 81.4169 0.721801 84.1629 0.695801C86.9089 0.717801 89.7249 1.1238 92.3669 2.1818C94.9789 3.2818 97.3819 5.0828 98.9379 7.4568C100.542 9.7918 101.428 12.4748 101.849 15.1448C102.026 16.4908 102.095 17.8388 102.062 19.1768C102.038 20.5148 101.91 21.8448 101.624 23.1468C101.617 23.1878 101.578 23.2148 101.537 23.2088C101.501 23.2028 101.475 23.1648 101.477 23.1268Z" fill="#E6B207"/>
<path d="M91.1599 28.4849C91.7439 28.4849 92.2219 28.0069 92.2219 27.4229V23.6079C92.2219 23.0239 91.7439 22.5459 91.1599 22.5459C90.5759 22.5459 90.0979 23.0239 90.0979 23.6079V27.4229C90.0979 28.0079 90.5759 28.4849 91.1599 28.4849Z" fill="#601222"/>
<path d="M77.1689 28.4849C77.7529 28.4849 78.2309 28.0069 78.2309 27.4229V23.6079C78.2309 23.0239 77.7529 22.5459 77.1689 22.5459C76.5849 22.5459 76.1069 23.0239 76.1069 23.6079V27.4229C76.1079 28.0079 76.5859 28.4849 77.1689 28.4849Z" fill="#601222"/>
<path d="M82.1989 26.1689C82.1989 26.1689 82.8159 29.9439 80.5339 31.6979L82.5539 33.7189" stroke="#CE6042" stroke-miterlimit="10" stroke-linecap="round" stroke-linejoin="round"/>
<path d="M77.9868 37.0566C77.9868 40.4686 80.7528 43.2346 84.1648 43.2346C87.5768 43.2346 90.3428 40.4686 90.3428 37.0566H77.9868Z" fill="white"/>
<path d="M116.852 323.18V345.912C116.852 347.288 117.966 348.401 119.341 348.401H149.497C151.299 348.401 152.369 347.058 152.5 345.628C152.544 344.995 152.413 344.34 152.063 343.794C150.371 341.064 148.438 338.488 146.975 335.627C146.091 333.891 143.438 328.694 143.438 328.694L141.604 323.224C141.779 323.999 144.104 334.906 135.948 335.791C123.796 337.09 116.852 323.18 116.852 323.18Z" fill="#6B2231"/>
<path d="M135.95 335.794C123.8 337.094 116.85 323.184 116.85 323.184H141.59C141.59 323.184 141.59 323.194 141.6 323.224C141.6 323.244 141.61 323.264 141.62 323.294C141.88 324.504 143.91 334.924 135.95 335.794Z" fill="#FF8E6E"/>
<path d="M141.609 323.225H141.599C141.589 323.195 141.589 323.185 141.589 323.185H116.859C116.859 323.185 115.659 318.945 113.869 312.385C124.649 312.415 134.119 311.845 140.689 311.285L141.609 323.225Z" fill="#FF8E6E"/>
<path d="M140.69 311.285C134.12 311.845 124.65 312.415 113.87 312.385C112.19 306.265 109.99 298.125 107.75 289.555L139.19 291.905L140.69 311.285Z" fill="#CE6042"/>
<path d="M141.599 323.225L116.859 323.185H141.589C141.589 323.185 141.589 323.194 141.599 323.225Z" fill="#FF8E6E"/>
<path d="M93.1989 323.18V345.912C93.1989 347.288 92.0849 348.401 90.7099 348.401H60.5539C58.7519 348.401 57.6819 347.058 57.5509 345.628C57.5069 344.995 57.6379 344.34 57.9879 343.794C59.6799 341.064 61.6129 338.488 63.0759 335.627C63.9599 333.891 66.6129 328.694 66.6129 328.694L68.4469 323.224C68.2719 323.999 65.9469 334.906 74.1029 335.791C86.2549 337.09 93.1989 323.18 93.1989 323.18Z" fill="#6B2231"/>
<path d="M93.2 323.185C93.2 323.185 86.26 337.095 74.1 335.795C66.14 334.925 68.17 324.505 68.43 323.295C68.44 323.265 68.45 323.245 68.45 323.225C68.46 323.195 68.46 323.185 68.46 323.185H93.2Z" fill="#FF8E6E"/>
<path d="M94.369 311.655C93.689 318.575 93.199 323.185 93.199 323.185H68.459C68.459 323.185 68.459 323.195 68.449 323.225L66.969 308.085C73.52 309.395 82.64 310.805 94.369 311.655Z" fill="#FF8E6E"/>
<path d="M68.4599 323.185H93.2L68.45 323.225C68.46 323.194 68.4599 323.185 68.4599 323.185Z" fill="#FF8E6E"/>
<path d="M96.52 288.715C95.78 297.125 94.99 305.345 94.37 311.655C82.64 310.805 73.52 309.395 66.97 308.085L64.84 286.345L96.52 288.715Z" fill="#CE6042"/>
<path d="M150.28 297.254C150.28 297.254 128.406 300.242 102.523 299.093C70.0289 297.651 54.2599 291.784 54.2599 291.784C42.0299 222.974 60.8799 119.874 60.8799 119.874C60.8799 119.874 81.2599 124.064 109.56 120.924L109.66 120.914L117.42 119.874C117.42 119.874 144.41 172.025 150.28 297.254Z" fill="#E6B207"/>
<mask id="mask1_170_7598" style="mask-type:luminance" maskUnits="userSpaceOnUse" x="50" y="119" width="101" height="181">
<path d="M150.28 297.254C150.28 297.254 128.406 300.242 102.523 299.093C70.0289 297.651 54.2599 291.784 54.2599 291.784C42.0299 222.974 60.8799 119.874 60.8799 119.874C60.8799 119.874 81.2599 124.064 109.56 120.924L109.66 120.914L117.42 119.874C117.42 119.874 144.41 172.025 150.28 297.254Z" fill="white"/>
</mask>
<g mask="url(#mask1_170_7598)">
<path d="M71.5789 301.783L70.9389 301.753C68.4189 289.283 66.7989 276.643 65.6189 263.963L64.7189 251.996C64.4489 248.007 64.3489 244.008 64.1489 240.009L63.8989 234.01L63.7989 228.011C63.7589 224.012 63.6089 220.013 63.6589 216.014C63.6289 200.008 64.2389 184.011 65.1489 168.035C66.1089 152.069 67.3889 136.113 69.2589 120.227L69.4589 120.247C68.8989 128.235 68.2989 136.203 67.9189 144.191L67.5489 150.17L67.2389 156.159C67.0089 160.148 66.8489 164.137 66.6989 168.126C66.0789 184.092 65.4789 200.048 65.6489 216.015C65.5989 231.971 66.0389 247.927 67.1589 263.833C67.2389 265.823 67.4289 267.812 67.6189 269.791L68.1689 275.749L68.7189 281.707L69.5189 287.625L70.2689 293.573L70.6389 296.537C70.7689 297.532 70.9889 298.506 71.1589 299.491C71.2989 300.255 71.4399 301.019 71.5789 301.783Z" fill="#F6851B"/>
<path d="M95.3789 302.637L94.7889 302.617C92.5289 289.896 90.8189 277.085 89.4189 264.254C87.8089 248.459 86.6989 232.613 85.9089 216.757C85.2289 200.901 84.8789 185.026 84.8089 169.15C84.7689 153.274 84.9689 137.068 85.5989 121.212L85.7989 121.222C85.8689 129.16 85.8289 137.419 86.0089 145.356C86.0589 153.284 86.1688 161.222 86.3688 169.14C86.6188 177.068 86.6489 184.996 86.9489 192.913C87.1589 200.841 87.5589 208.749 87.9089 216.666C88.2989 224.574 88.5988 232.492 89.1788 240.399C89.4488 244.348 89.6489 248.307 90.0289 252.245C90.3889 256.184 90.6789 260.133 90.9589 264.092L92.0989 275.908C92.2989 277.877 92.4489 279.857 92.7089 281.826L93.4489 287.714L94.1188 293.622L94.4689 296.576L94.9089 299.51C95.0689 300.547 95.2299 301.592 95.3789 302.637Z" fill="#F6851B"/>
<path d="M118.22 303.461L117.68 303.441C117.34 298.106 117.04 292.77 116.54 287.445C116.23 283.466 116.01 279.487 115.67 275.518L114.65 263.601C113.2 247.725 111.88 231.839 110.03 216.004C109.65 212.035 109.22 208.066 108.8 204.107C108.38 200.138 107.96 196.179 107.5 192.22C107.03 188.261 106.61 184.292 106.11 180.343L105.39 174.405L104.73 168.457C103.82 160.539 102.87 152.621 101.87 144.704C100.98 136.776 99.9199 128.868 98.9899 120.941L99.1899 120.901C101.82 136.646 104.13 152.442 106.27 168.257C108.4 184.072 110.31 199.918 112.01 215.794C113.71 231.66 115.04 247.566 116.2 263.492C117.14 276.793 117.799 290.127 118.22 303.461Z" fill="#F6851B"/>
<path d="M140.579 304.265L140.079 304.245C139.989 302.587 139.899 300.929 139.829 299.271L139.529 293.202C139.419 291.182 139.209 289.163 139.059 287.143L138.199 275.035C137.859 271.006 137.399 266.987 137.009 262.957C136.249 254.909 135.219 246.88 134.309 238.852L132.599 226.845C132.299 224.845 132.049 222.836 131.719 220.846L130.719 214.858C129.549 206.86 128.099 198.902 126.679 190.944L124.339 179.037C123.969 177.047 123.489 175.088 123.089 173.109L121.879 167.161C121.079 163.192 120.149 159.253 119.299 155.304C118.409 151.355 117.439 147.426 116.509 143.488C114.669 135.6 112.619 127.763 110.489 119.946L110.679 119.876C115.639 135.32 119.749 151.015 123.399 166.81C124.269 170.769 125.199 174.718 126.029 178.677L128.469 190.594C129.949 198.562 131.469 206.53 132.689 214.548L133.649 220.547C133.969 222.557 134.209 224.566 134.489 226.576L136.109 238.624L137.429 250.722C137.639 252.732 137.899 254.751 138.059 256.771L138.549 262.83C139.839 276.603 140.339 290.428 140.579 304.265Z" fill="#F6851B"/>
</g>
<path d="M116.904 64.7768C113.019 62.3618 99.9399 59.1138 95.0299 59.1138H83.2699C81.6069 59.1138 79.9829 59.2788 78.4089 59.5848C78.4029 59.5848 78.3969 59.5838 78.3899 59.5838C74.9399 59.8238 70.8699 61.1138 66.9499 63.0538C64.7899 64.7778 62.4499 67.4108 61.6359 71.0428C58.6489 74.9338 54.6819 79.4898 54.6819 84.4338C54.6819 89.6938 58.5569 92.4888 58.5569 92.4888L60.8799 119.874C60.8799 119.874 81.2599 124.064 109.56 120.924L109.66 120.914L117.42 119.874L120.42 84.5038C120.42 75.3948 124.113 69.2568 116.904 64.7768Z" fill="#FFEBDB"/>
<mask id="mask2_170_7598" style="mask-type:luminance" maskUnits="userSpaceOnUse" x="54" y="59" width="68" height="64">
<path d="M116.904 64.7768C113.019 62.3618 99.9399 59.1138 95.0299 59.1138H83.2699C81.6069 59.1138 79.9829 59.2788 78.4089 59.5848C78.4029 59.5848 78.3969 59.5838 78.3899 59.5838C74.9399 59.8238 70.8699 61.1138 66.9499 63.0538C64.7899 64.7778 62.4499 67.4108 61.6359 71.0428C58.6489 74.9338 54.6819 79.4898 54.6819 84.4338C54.6819 89.6938 58.5569 92.4888 58.5569 92.4888L60.8799 119.874C60.8799 119.874 81.2599 124.064 109.56 120.924L109.66 120.914L117.42 119.874L120.42 84.5038C120.42 75.3948 124.113 69.2568 116.904 64.7768Z" fill="white"/>
</mask>
<g mask="url(#mask2_170_7598)">
<path d="M100.64 58.4146C90.99 62.7546 76.3599 77.6346 76.3599 77.6346C76.3599 77.6346 74.16 62.6546 77.66 59.1146L100.64 58.4146Z" fill="#FF8E6E"/>
</g>
<mask id="mask3_170_7598" style="mask-type:luminance" maskUnits="userSpaceOnUse" x="54" y="59" width="68" height="64">
<path d="M116.904 64.7768C113.019 62.3618 99.9399 59.1138 95.0299 59.1138H83.2699C81.6069 59.1138 79.9829 59.2788 78.4089 59.5848C78.4029 59.5848 78.3969 59.5838 78.3899 59.5838C74.9399 59.8238 70.8699 61.1138 66.9499 63.0538C64.7899 64.7778 62.4499 67.4108 61.6359 71.0428C58.6489 74.9338 54.6819 79.4898 54.6819 84.4338C54.6819 89.6938 58.5569 92.4888 58.5569 92.4888L60.8799 119.874C60.8799 119.874 81.2599 124.064 109.56 120.924L109.66 120.914L117.42 119.874L120.42 84.5038C120.42 75.3948 124.113 69.2568 116.904 64.7768Z" fill="white"/>
</mask>
<g mask="url(#mask3_170_7598)">
<path d="M118.094 114.643L117.562 119.855L109.66 120.914L109.56 120.924C81.2598 124.064 60.5378 119.867 60.5378 119.867L60.2039 114.643C63.4539 115.243 83.5798 118.644 110.31 115.674L110.42 115.664L118.094 114.643Z" fill="#6B2231"/>
</g>
<path d="M154.183 104.755C153.704 100.824 151.676 97.0007 149.349 93.8797C147.926 91.9717 146.605 90.4307 145.3 88.9777C138.138 81.0697 130.07 73.9717 121.712 67.3577L121.623 67.2857C121.293 67.0257 120.949 66.7777 120.592 66.5427C113.668 61.9787 103.365 63.3317 99.79 70.8147C95.053 80.7307 103.461 91.3757 110.385 95.9407C111.582 96.7297 116.953 100.586 119.409 102.446C121.863 104.295 124.277 106.145 126.364 107.935C127.404 108.818 128.35 109.695 129.02 110.352C129.233 110.553 129.558 110.87 129.8 111.09C131.896 116.369 137.356 119.771 143.246 119.003C147.835 118.405 151.816 115.267 153.476 110.947C154.26 108.911 154.435 106.818 154.183 104.755Z" fill="#FF8E6E"/>
<path d="M119.44 102.406L124.777 106.566C125.671 107.255 126.565 107.942 127.373 108.734C128.201 109.501 129.042 110.256 129.847 111.041C129.854 111.047 129.861 111.058 129.865 111.066C130.221 111.978 130.684 112.85 131.242 113.656C131.258 113.678 131.252 113.709 131.23 113.724C131.211 113.737 131.187 113.735 131.171 113.721L131.161 113.713C130.766 113.385 130.434 112.999 130.113 112.597C129.781 112.201 129.51 111.76 129.274 111.3L129.42 111.511C128.962 111.166 128.499 110.81 128.046 110.49L126.744 109.442C125.926 108.695 125.021 108.029 124.165 107.306C122.449 105.865 120.822 104.317 119.383 102.485L119.374 102.474C119.357 102.453 119.361 102.422 119.382 102.405C119.398 102.392 119.423 102.393 119.44 102.406Z" fill="#CE6042"/>
</svg>
