<svg width="160" height="350" viewBox="0 0 160 350" fill="none" xmlns="http://www.w3.org/2000/svg">
<path d="M72.9038 285.566L81.9679 294.021L53.3678 348.916C52.0988 348.245 51.1788 346.888 51.4018 345.075L54.1908 325.261L53.7068 301.21L72.9038 285.566Z" fill="#55B6E0"/>
<path d="M81.9678 294.021L85.4478 295.835L58.6168 347.333C57.5548 349.372 55.3858 349.792 53.7128 349.076C53.5938 349.024 53.4828 348.976 53.3678 348.916L81.9678 294.021Z" fill="#FFEBDB"/>
<path d="M70.4399 266.879L46.6938 274.536L53.7068 301.21L72.9039 285.566L70.4399 266.879Z" fill="#FFEBDB"/>
<path d="M85.5688 323.982V345.401H121.164C121.095 345.124 120.982 344.865 120.827 344.623C119.124 341.892 117.197 339.316 115.736 336.455C114.846 334.718 112.192 329.505 112.192 329.505L110.342 323.982H85.5688Z" fill="#55B6E0"/>
<path d="M85.5688 345.402V346.742C85.5688 348.125 86.6839 349.24 88.0579 349.24H118.26C120.066 349.24 121.138 347.892 121.259 346.465C121.285 346.111 121.259 345.748 121.164 345.402H85.5688Z" fill="#FFEBDB"/>
<path d="M121.743 133.399C121.383 158.539 120.183 183.669 118.863 208.779L114.363 324.589L79.6519 323.982L84.4229 154.439L69.033 223.999L79.2029 287.549L44.8329 292.179L34.2329 226.219C33.8829 224.069 33.9529 221.859 34.4229 219.729L52.3629 138.669L52.403 132.929C64.483 134.639 94.3329 137.929 121.743 133.399Z" fill="#174566"/>
<path d="M121.763 132.059C121.753 132.509 121.753 132.949 121.743 133.399C94.3329 137.929 64.483 134.639 52.403 132.929V132.059L52.6929 85.3387C52.6929 71.3187 64.0529 59.9487 78.0829 59.9487H95.8229C109.853 59.9487 121.213 71.3187 121.213 85.3387C121.843 100.909 121.973 116.479 121.763 132.059Z" fill="#FFEBDB"/>
<path d="M99.783 60.2587C96.723 65.1787 91.053 68.9187 85.743 69.1487C79.963 69.4087 76.573 65.4287 77.493 59.9587C77.693 59.9487 77.883 59.9487 78.083 59.9487H95.823C97.173 59.9487 98.493 60.0487 99.783 60.2587Z" fill="#CE6042"/>
<path d="M122.573 104.969L121.853 68.2788C117.042 65.3778 107.743 61.0788 98.7129 60.1188C98.1829 59.9788 97.6929 59.9188 97.2529 59.9888C90.5329 60.9788 88.5529 69.7088 88.5529 69.7088L88.1829 141.759C88.1829 141.759 93.6929 143.049 100.063 140.709C110.563 136.839 114.593 134.589 123.263 140.129L122.573 104.969Z" fill="#55B6E0"/>
<path d="M95.2438 133.14C96.3018 132.687 97.3578 132.272 98.3748 131.769C99.4098 131.323 100.423 130.832 101.395 130.288C102.361 129.739 103.346 129.226 104.225 128.591C105.124 127.969 105.972 127.232 106.891 126.536C107.821 125.856 108.8 125.176 109.883 124.621C110.965 124.077 112.169 123.643 113.415 123.598C114.652 123.528 115.872 123.709 116.997 124.083C118.112 124.496 119.164 125.003 120.107 125.676L120.113 125.681C120.135 125.697 120.141 125.728 120.125 125.75C120.111 125.77 120.084 125.776 120.063 125.766C118.034 124.78 115.769 124.074 113.507 124.358C111.23 124.621 109.271 125.937 107.493 127.324C106.589 128.015 105.691 128.723 104.737 129.356C103.783 129.991 102.77 130.528 101.735 131.011C99.6568 131.964 97.4888 132.708 95.2668 133.238C95.2408 133.244 95.2138 133.228 95.2068 133.201C95.2008 133.177 95.2138 133.153 95.2358 133.144L95.2438 133.14Z" fill="#4192D9"/>
<path d="M125.133 146.699C125.133 146.699 123.283 151.309 121.023 156.019C119.213 155.669 109.763 153.569 105.033 147.689C105.033 147.689 105.033 147.689 105.033 147.679C104.893 147.369 104.733 147.149 104.563 147.069C103.843 146.719 102.763 148.029 102.513 148.339L99.073 152.099C97.823 153.609 95.673 153.759 94.043 152.669C91.483 150.979 93.703 148.569 94.253 147.919C94.253 147.919 94.733 147.329 95.403 146.489C96.683 144.909 98.373 141.399 99.523 140.659C101.433 139.429 107.468 136.839 111.113 136.839L125.133 146.699Z" fill="#CE6042"/>
<path d="M121.313 156.149C119.61 156.371 117.931 156.2 116.294 155.861C114.65 155.53 113.062 154.96 111.531 154.244C110.028 153.469 108.58 152.54 107.331 151.363C106.1 150.169 105.053 148.739 104.506 147.118L104.628 147.031C105.602 148.318 106.766 149.443 108.044 150.425C109.348 151.373 110.741 152.191 112.19 152.898C113.636 153.61 115.135 154.219 116.664 154.738C118.194 155.251 119.755 155.693 121.338 156.001L121.313 156.149Z" fill="#6794CF"/>
<path d="M108.961 96.026L113.345 98.882C116.271 100.768 119.15 102.69 121.971 104.561C123.377 105.501 124.746 106.458 126.077 107.395C127.109 108.111 128.095 108.824 129.036 109.525C127.359 112.148 125.563 114.86 123.726 117.574C119.773 123.461 114.93 130.693 111.113 136.839C111.113 136.839 113.017 139.887 116.803 142.859C119.771 145.189 125.133 146.699 125.133 146.699C128.211 144.417 130.792 143.109 133.659 140.675L137.885 136.96L142.027 133.111C144.757 130.484 147.46 127.801 150.131 124.852C154.248 120.306 158.736 115.138 159.53 108.818C160.25 103.085 157.449 97.71 153.892 93.426C152.087 91.253 150.462 89.685 148.865 88.179C145.693 85.204 142.632 82.698 139.516 80.313C136.429 77.912 133.293 75.709 130.145 73.563C128.557 72.511 126.985 71.444 125.369 70.444C124.592 69.95 121.317 67.757 116.586 65.498L108.961 96.026Z" fill="#55B6E0"/>
<path d="M129.001 109.49C129.464 108.889 129.974 108.332 130.497 107.786C131.019 107.239 131.55 106.694 132.134 106.208C133.301 105.239 134.472 104.23 135.969 103.572C136.346 103.411 136.737 103.262 137.178 103.169C137.615 103.063 138.133 103.062 138.552 103.108C139.423 103.204 140.206 103.47 140.946 103.782C142.427 104.429 143.665 105.341 144.889 106.347C145.238 106.633 145.288 107.148 145.002 107.497C144.822 107.715 144.548 107.816 144.286 107.791C143.293 107.688 142.242 107.658 141.216 107.63C140.184 107.586 139.149 107.581 138.116 107.628C137.084 107.685 136.059 107.793 135.028 107.92C134.003 108.075 132.994 108.316 131.985 108.634L131.977 108.636C131.951 108.644 131.923 108.63 131.915 108.603C131.907 108.579 131.919 108.554 131.941 108.543C133.859 107.636 135.957 107.212 138.049 106.982C140.148 106.77 142.262 106.735 144.37 106.887L144.306 107.04C143.149 106.113 141.887 105.298 140.543 104.675C139.87 104.37 139.165 104.119 138.437 104.023C137.708 103.901 136.981 104.092 136.298 104.373C134.929 104.944 133.688 105.796 132.493 106.682C131.303 107.58 130.16 108.544 129.07 109.561C129.05 109.58 129.018 109.579 129 109.559C128.983 109.541 128.982 109.514 128.997 109.495L129.001 109.49Z" fill="#4192D9"/>
<path d="M111.06 75.7021C110.67 78.4641 110.617 81.2741 110.807 84.0561C111.001 86.8391 111.505 89.6042 112.362 92.2552C113.227 94.8992 114.473 97.4402 116.211 99.6212C117.925 101.823 120.141 103.604 122.596 104.924C122.62 104.937 122.629 104.967 122.616 104.991C122.604 105.014 122.572 105.021 122.549 105.012C121.238 104.497 119.966 103.833 118.79 103.011C117.64 102.161 116.549 101.2 115.603 100.104C113.678 97.9272 112.379 95.2722 111.411 92.5652C110.595 89.8012 110.084 86.9591 110.029 84.1101C110.012 82.6861 110.058 81.2662 110.187 79.8562C110.376 78.4502 110.558 77.0472 110.96 75.6862C110.965 75.6592 110.992 75.6412 111.019 75.6472C111.045 75.6512 111.061 75.6781 111.06 75.7021Z" fill="#4192D9"/>
<path d="M123.768 117.602L117.504 127.261L111.156 136.866C111.141 136.889 111.11 136.895 111.087 136.88C111.067 136.866 111.059 136.84 111.069 136.819L111.071 136.813C112.602 133.247 114.58 129.947 116.665 126.719C117.735 125.123 118.806 123.527 119.989 122.005L121.764 119.725C122.407 118.999 123.001 118.242 123.686 117.546L123.692 117.54C123.711 117.52 123.743 117.52 123.762 117.539C123.778 117.557 123.78 117.583 123.768 117.602Z" fill="#4192D9"/>
<path d="M70.278 72.2909C66.088 64.9759 59.165 62.4429 51.85 66.6329L51.697 66.7209C47.77 68.9699 39.506 73.9119 35.062 76.2929C34.217 72.9729 33.249 69.6389 32.056 66.3169L32.007 66.1799C31.195 63.9549 29.437 62.0939 27.033 61.2349C22.742 59.6999 18.019 61.9339 16.484 66.2249C14.247 72.4779 12.856 78.6899 11.796 85.0239C11.26 88.1949 10.879 91.3749 10.588 94.6869C10.46 96.3539 10.363 98.0289 10.333 99.9149C10.348 103.041 10.643 106.2 12.007 109.059C14.457 114.192 19.704 117.68 25.417 117.81C27.079 117.848 28.73 117.641 30.33 117.188C33.386 116.322 36.288 114.69 38.989 113.046C40.53 112.108 41.965 111.247 43.336 110.325C46.092 108.522 51.685 104.672 54.214 102.757C59.246 98.8889 64.005 94.8919 68.318 90.1569C72.648 85.3899 73.651 78.1819 70.278 72.2909Z" fill="#55B6E0"/>
<path d="M35.11 76.2861C36.164 79.3181 36.705 82.4291 37.117 85.5531C37.29 87.1191 37.462 88.6851 37.502 90.2651L37.558 92.6341C37.516 93.4301 37.53 94.2191 37.437 95.0191L37.436 95.0281C37.433 95.0551 37.408 95.0751 37.381 95.0711C37.358 95.0681 37.34 95.0501 37.338 95.0281L36.126 85.6691L35.012 76.2981C35.009 76.2711 35.028 76.2461 35.055 76.2431C35.079 76.2401 35.1 76.2541 35.108 76.2761L35.11 76.2861Z" fill="#4192D9"/>
<path d="M35.0809 76.2467C35.7859 76.4417 36.4689 76.6987 37.1399 76.9867C37.8109 77.2757 38.4879 77.5717 39.1239 77.9547C39.7619 78.3307 40.3869 78.7467 40.9729 79.2507C41.5529 79.7607 42.1309 80.3237 42.5129 81.1717C42.8129 82.1267 42.7689 82.8317 42.7889 83.6007C42.7879 84.3527 42.7389 85.0847 42.6869 85.8177C42.6319 86.5497 42.5579 87.2747 42.4769 87.9997C42.3729 88.7227 42.2479 89.4347 42.1149 90.1607L42.1139 90.1687C42.0279 90.6347 41.5809 90.9437 41.1149 90.8587C40.7409 90.7897 40.4689 90.4877 40.4189 90.1307C40.2839 89.1467 40.0229 88.0717 39.7119 87.0627C39.3809 86.0487 39.0619 85.0227 38.6519 84.0277C38.2559 83.0247 37.7649 82.0647 37.2609 81.1017C36.7779 80.1217 36.1599 79.2237 35.5749 78.2767L35.5699 78.2697C35.5559 78.2467 35.5629 78.2157 35.5859 78.2017C35.6069 78.1887 35.6339 78.1937 35.6489 78.2117C37.1019 79.8737 38.34 81.7277 39.293 83.7217C40.252 85.7117 40.9829 87.8157 41.3629 90.0047L41.1789 90.0017C41.4039 88.5827 41.5979 87.1557 41.7459 85.7267C41.8129 85.0117 41.8779 84.2957 41.8949 83.5787C41.9039 82.8677 41.9219 82.1317 41.7239 81.4657C41.4719 80.8097 40.9939 80.2547 40.4869 79.7597C39.9749 79.2607 39.4029 78.8247 38.8089 78.4227C37.6229 77.6157 36.35 76.9307 35.043 76.3387C35.018 76.3277 35.0069 76.2977 35.0179 76.2727C35.0279 76.2497 35.0529 76.2387 35.0769 76.2457L35.0809 76.2467Z" fill="#4192D9"/>
<path d="M1.41295 46.5069C2.56995 45.4449 4.36892 45.5129 5.42992 46.6609L12.431 54.2359C12.535 54.0819 12.649 53.9439 12.754 53.7989L4.0269 40.9239C3.1479 39.6259 3.48794 37.8539 4.78594 36.9749C6.09294 36.0959 7.85591 36.4359 8.73491 37.7339L17.2509 50.2909C17.2929 50.2709 17.3269 50.2519 17.3689 50.2319L17.7099 50.0989L11.9549 35.4619C11.3809 34.0059 12.1019 32.3509 13.5579 31.7769C15.0229 31.2019 16.6689 31.9239 17.2429 33.3799L23.1309 48.3399C23.3129 48.3199 23.4849 48.2929 23.6669 48.2729L21.5319 38.1269C21.2059 36.5869 22.1879 35.0819 23.7199 34.7559C25.2689 34.4289 26.7649 35.4209 27.0909 36.9519L29.7709 49.6799C29.8699 49.7349 29.9699 49.8079 30.0689 49.8629C30.7799 46.4139 31.8669 43.8919 31.9449 43.7219C32.5739 42.2819 34.2519 41.6339 35.6919 42.2629C37.1239 42.9009 37.7809 44.5699 37.1429 46.0109C36.4449 47.6029 35.1779 53.3479 35.2599 57.9929C35.3489 63.0139 32.8829 67.2009 28.4139 68.9819L25.3149 70.2109C19.8159 72.4009 13.5389 69.6889 11.3489 64.1979C10.8879 63.0319 10.66 61.8339 10.616 60.6429L1.25993 50.5239C0.187935 49.3679 0.26495 47.5679 1.41295 46.5069Z" fill="#CE6042"/>
<path d="M23.43 62.861C22.776 61.93 22.318 60.808 22.249 59.595C22.193 58.991 22.259 58.376 22.36 57.762C22.538 57.175 22.674 56.549 22.994 56.013C23.128 55.73 23.289 55.466 23.468 55.215C23.643 54.961 23.801 54.691 24.018 54.475C24.424 54.015 24.871 53.607 25.335 53.229C26.314 52.514 27.327 51.992 28.543 51.689L28.021 52.221C28.289 51.794 28.547 51.363 28.852 50.95C29.139 50.53 29.47 50.126 29.826 49.731L29.845 49.71C29.872 49.68 29.917 49.678 29.947 49.705C29.969 49.725 29.976 49.756 29.967 49.783L28.97 52.571C28.961 52.598 28.941 52.618 28.917 52.629L28.911 52.632C26.999 53.494 25.308 54.917 24.252 56.72C23.971 57.164 23.798 57.66 23.605 58.147C23.488 58.657 23.326 59.16 23.31 59.688C23.175 60.736 23.358 61.791 23.577 62.822C23.585 62.862 23.56 62.901 23.52 62.909C23.49 62.915 23.461 62.903 23.445 62.879L23.43 62.861Z" fill="#993C21"/>
<path d="M79.123 60.009L78.553 69.709L73.923 143.289C73.923 143.289 58.553 141.82 50.833 136.27L52.573 103.979L50.833 99.949V67.229C65.593 58.749 79.123 60.009 79.123 60.009Z" fill="#55B6E0"/>
<path d="M52.527 103.977C51.952 99.964 51.897 95.963 51.97 91.966C52.04 89.968 52.111 87.97 52.315 85.975L52.625 82.983C52.789 81.987 52.896 80.99 53.112 79.995L53.1141 79.986C53.1201 79.959 53.146 79.942 53.173 79.948C53.197 79.953 53.212 79.974 53.212 79.997L52.969 91.989L52.6271 103.978C52.6261 104.005 52.603 104.027 52.576 104.026C52.551 104.025 52.5321 104.007 52.5281 103.983L52.527 103.977Z" fill="#4192D9"/>
<path d="M100.824 54.998H77.7939L76.7939 59.9601H100.816L100.824 54.998Z" fill="#4192D9"/>
<path d="M80.3149 61.4419H97.3029L96.679 43.1309H80.9399L80.3149 61.4419Z" fill="#CE6042"/>
<mask id="mask0_170_7675" style="mask-type:luminance" maskUnits="userSpaceOnUse" x="80" y="43" width="18" height="19">
<path d="M80.3149 61.4419H97.3029L96.679 43.1309H80.9399L80.3149 61.4419Z" fill="white"/>
</mask>
<g mask="url(#mask0_170_7675)">
<path d="M79.282 53.2387C82.021 55.0517 85.298 56.1097 88.812 56.1097C92.325 56.1097 95.603 55.0517 98.342 53.2387L97.945 41.6597H79.67L79.282 53.2387Z" fill="#993C21"/>
</g>
<path d="M77.7939 54.998L79.1269 59.629L73.3899 69.465L74.8669 60.566L77.7939 54.998Z" fill="#55B6E0"/>
<path d="M79.127 59.6289L78.5479 69.7059L75.5709 65.7249L79.127 59.6289Z" fill="#4192D9"/>
<path d="M79.1589 59.6479C78.8109 60.5439 78.3989 61.4019 78.0089 62.2729L76.7379 64.8269C76.3009 65.6699 75.824 66.4909 75.369 67.3239C74.902 68.1499 74.4689 68.9959 73.9559 69.7949L72.0659 72.7419L72.7419 69.3569C73.0369 67.8819 73.264 66.3959 73.614 64.9299L74.1299 62.7299C74.3129 61.9989 74.5309 61.2729 74.7299 60.5439L74.7399 60.5079L74.744 60.5019L75.1599 59.9279L75.226 59.9629L74.9019 60.5849L74.9059 60.5729L73.46 69.4759L73.327 69.4279L79.0939 59.6099L79.1589 59.6479Z" fill="#4192D9"/>
<path d="M100.824 54.998L92.4379 59.629L92.8129 70.465L101.282 60.566L100.824 54.998Z" fill="#55B6E0"/>
<path d="M92.4379 59.6289L88.5479 69.7059L92.6078 64.5549L92.4379 59.6289Z" fill="#4192D9"/>
<path d="M92.4749 59.6279L92.8839 70.4619L92.758 70.4179L101.253 60.5419L101.31 60.5909C100.72 61.5139 100.074 62.3909 99.4439 63.2809L97.4719 65.8799L95.411 68.4019C94.719 69.2389 94.044 70.0899 93.309 70.8889L92.185 72.1109L92.1599 70.4869L92.1179 67.7759C92.0919 66.8729 92.0989 65.9689 92.1309 65.0639C92.1599 63.2549 92.2279 61.4439 92.3989 59.6299L92.4749 59.6279Z" fill="#4192D9"/>
<path d="M113.617 34.5618C110.811 37.5568 106.399 37.9818 103.761 35.5118C101.124 33.0408 101.26 28.6098 104.066 25.6148C106.872 22.6198 111.284 22.1948 113.922 24.6648C116.559 27.1358 116.422 31.5668 113.617 34.5618Z" fill="#CE6042"/>
<path d="M112.296 27.0179C112.296 27.0179 106.437 26.4439 105.668 32.5329L112.296 27.0179Z" fill="#993C21"/>
<path d="M64.0019 34.5618C66.8079 37.5568 71.2199 37.9818 73.8579 35.5118C76.4949 33.0408 76.3589 28.6098 73.5529 25.6148C70.7469 22.6198 66.3349 22.1948 63.6969 24.6648C61.0599 27.1358 61.1959 31.5668 64.0019 34.5618Z" fill="#CE6042"/>
<path d="M65.3229 27.0179C65.3229 27.0179 71.1819 26.4439 71.9509 32.5329L65.3229 27.0179Z" fill="#993C21"/>
<path d="M88.8089 52.8342C98.3719 52.8342 106.195 45.0102 106.195 35.4482V20.6482C106.195 11.0852 98.3709 3.26221 88.8089 3.26221C79.2459 3.26221 71.4219 11.0862 71.4219 20.6492V35.4492C71.4229 45.0112 79.2469 52.8342 88.8089 52.8342Z" fill="#CE6042"/>
<path d="M105.572 3.46406L72.2249 0.712059C71.3819 0.642059 70.6609 1.31206 70.6689 2.15806L71.4219 27.5701C71.4219 27.5701 75.2739 24.0391 75.2369 22.6921C75.1989 21.3451 74.8989 19.0701 74.7809 17.7991C74.4749 14.5281 77.6329 9.47506 83.0069 10.1551C84.8739 10.3921 86.5419 13.4011 88.8089 13.4011C91.0759 13.4011 92.7439 10.3921 94.6109 10.1551C99.9859 9.47506 103.143 14.5281 102.837 17.7991C102.718 19.0701 102.419 21.3451 102.381 22.6921C102.343 24.0401 106.195 27.5701 106.195 27.5701L106.889 4.97706C106.933 4.20006 106.349 3.52906 105.572 3.46406Z" fill="#6B2231"/>
<path d="M95.804 29.3199C96.388 29.3199 96.866 28.8419 96.866 28.2579V24.4419C96.866 23.8579 96.388 23.3799 95.804 23.3799C95.22 23.3799 94.7419 23.8579 94.7419 24.4419V28.2579C94.7419 28.8419 95.22 29.3199 95.804 29.3199Z" fill="#601222"/>
<path d="M81.814 29.3199C82.398 29.3199 82.8759 28.8419 82.8759 28.2579V24.4419C82.8759 23.8579 82.398 23.3799 81.814 23.3799C81.23 23.3799 80.752 23.8579 80.752 24.4419V28.2579C80.752 28.8419 81.23 29.3199 81.814 29.3199Z" fill="#601222"/>
<path d="M86.8439 27.0039C86.8439 27.0039 87.461 30.7789 85.179 32.5329L87.1989 34.5539" stroke="#993C21" stroke-miterlimit="10" stroke-linecap="round" stroke-linejoin="round"/>
<path d="M82.6309 37.8911C82.6309 41.3031 85.3969 44.0691 88.8089 44.0691C92.2209 44.0691 94.9869 41.3031 94.9869 37.8911H82.6309Z" fill="white"/>
</svg>
